<svg xmlns="http://www.w3.org/2000/svg" width="430" height="430" fill="none" viewBox="0 0 430 430"><g stroke-linecap="round" stroke-linejoin="round" stroke-miterlimit="10" stroke-width="12"><path stroke="#333" d="M59.3 309.6c-5.1-6.5-8.2-14.8-8.2-23.8s3.1-17.2 8.2-23.8m-16 59.5c-7.7-9.8-12.3-22.2-12.3-35.6s4.6-25.8 12.3-35.6m327.1 58.9c5.1-6.5 8.2-14.8 8.2-23.8s-3.1-17.2-8.2-23.8m16 59.5c7.7-9.8 12.3-22.2 12.3-35.6s-4.6-25.8-12.3-35.6m-263.5 79.4h.1m183.8 0h.1"/><path stroke="#3080e8" d="M144.9 230.7h-44.1c-7.3 0-13.2 5.9-13.2 13.2V336c0 7.3 5.9 13.2 13.2 13.2h44.1c7.3 0 13.2-5.9 13.2-13.2v-92.1c0-7.3-5.9-13.2-13.2-13.2m13.2 79.3H87.6"/><path stroke="#3080e8" d="m134.2 349.1 6.9 25h-36.5l6.9-25m216.6-118.4h-42.5c-7.7 0-14 6.3-14 14v90.4c0 7.7 6.3 14 14 14h42.5c7.7 0 14-6.3 14-14v-90.4c0-7.8-6.3-14-14-14m14 79.3h-70.5m46.5 39.1 7 25h-36.5l6.9-25m11.1-145H122.5c-6.6 0-12-5.4-12-12V67c0-6.6 5.4-12 12-12h184.1c6.6 0 12 5.4 12 12v125.1c0 6.6-5.4 12-12 12m11.9-32.8H111m130.6 57.1h-54.2m15.2-24.3-5.2 24.3m29.1-24.3 5.1 24.3"/></g></svg>