<?xml version="1.0" encoding="UTF-8"?>
<!DOCTYPE svg PUBLIC "-//W3C//DTD SVG 1.1//EN" "http://www.w3.org/Graphics/SVG/1.1/DTD/svg11.dtd">
<svg xmlns="http://www.w3.org/2000/svg" version="1.1" width="5000px" height="2812px" style="shape-rendering:geometricPrecision; text-rendering:geometricPrecision; image-rendering:optimizeQuality; fill-rule:evenodd; clip-rule:evenodd" xmlns:xlink="http://www.w3.org/1999/xlink">
<g><path style="opacity:0.993" fill="#15495c" d="M 1376.5,179.5 C 1425.7,177.339 1460.87,198.339 1482,242.5C 1485.99,252.463 1488.32,262.797 1489,273.5C 1489.67,635.833 1489.67,998.167 1489,1360.5C 1482.97,1411.19 1455.14,1442.36 1405.5,1454C 1363.45,1459.88 1329.62,1446.05 1304,1412.5C 1292.88,1396.24 1286.88,1378.24 1286,1358.5C 1285.33,997.833 1285.33,637.167 1286,276.5C 1292.28,221.723 1322.45,189.389 1376.5,179.5 Z"/></g>
<g><path style="opacity:0.999" fill="#15495c" d="M 3600.5,179.5 C 3646.35,176.603 3680.52,194.936 3703,234.5C 3708.15,244.943 3711.48,255.943 3713,267.5C 3713.67,634.167 3713.67,1000.83 3713,1367.5C 3704.59,1414.58 3677.09,1443.41 3630.5,1454C 3584.43,1459.71 3548.93,1443.21 3524,1404.5C 3517.8,1392.89 3513.8,1380.55 3512,1367.5C 3511.33,1000.5 3511.33,633.5 3512,266.5C 3521.92,217.416 3551.42,188.416 3600.5,179.5 Z"/></g>
<g><path style="opacity:0.993" fill="#15495c" d="M 819.5,560.5 C 857.688,557.854 888.854,571.187 913,600.5C 925.422,617.431 932.089,636.431 933,657.5C 933.667,823.833 933.667,990.167 933,1156.5C 928.136,1207.36 900.97,1239.2 851.5,1252C 803.895,1258.78 767.395,1241.94 742,1201.5C 735.159,1188.31 731.159,1174.31 730,1159.5C 729.012,988.147 729.345,816.814 731,645.5C 741.805,597.525 771.305,569.192 819.5,560.5 Z"/></g>
<g><path style="opacity:0.996" fill="#14495d" d="M 1931.5,560.5 C 1975.92,557.627 2009.76,574.96 2033,612.5C 2039.79,624.987 2043.79,638.321 2045,652.5C 2045.99,824.855 2045.66,997.189 2044,1169.5C 2034.39,1213.78 2007.55,1241.28 1963.5,1252C 1911.41,1258.88 1873.58,1239.04 1850,1192.5C 1845.03,1180.33 1842.37,1167.66 1842,1154.5C 1841.02,985.485 1841.35,816.485 1843,647.5C 1852.91,598.422 1882.41,569.422 1931.5,560.5 Z"/></g>
<g><path style="opacity:0.994" fill="#14485c" d="M 3043.5,560.5 C 3095.69,557.995 3131.86,580.661 3152,628.5C 3154.63,636.636 3156.3,644.97 3157,653.5C 3157.67,822.5 3157.67,991.5 3157,1160.5C 3151.78,1202.7 3129.61,1231.87 3090.5,1248C 3043,1261.94 3003.83,1249.77 2973,1211.5C 2962.85,1196.73 2956.85,1180.4 2955,1162.5C 2954.01,989.808 2954.34,817.142 2956,644.5C 2963.16,608.673 2983.32,583.173 3016.5,568C 3025.41,564.692 3034.41,562.192 3043.5,560.5 Z"/></g>
<g><path style="opacity:0.996" fill="#14485d" d="M 4155.5,560.5 C 4205.5,557.738 4241.33,578.738 4263,623.5C 4267.07,634.131 4269.41,645.131 4270,656.5C 4270.67,823.5 4270.67,990.5 4270,1157.5C 4266.43,1198.82 4245.93,1228.32 4208.5,1246C 4162.94,1262.23 4123.44,1253.07 4090,1218.5C 4077.3,1203.1 4069.64,1185.43 4067,1165.5C 4066.33,993.167 4066.33,820.833 4067,648.5C 4076.47,598.867 4105.97,569.533 4155.5,560.5 Z"/></g>
<g><path style="opacity:0.996" fill="#14495d" d="M 272.5,838.5 C 326.325,840.808 360.492,867.808 375,919.5C 375.885,926.044 376.719,932.544 377.5,939C 377.5,1010.33 377.5,1081.67 377.5,1153C 374.344,1201.81 349.677,1234.15 303.5,1250C 253.954,1260.94 215.12,1245.44 187,1203.5C 179.647,1190.44 175.314,1176.44 174,1161.5C 173.333,1084.5 173.333,1007.5 174,930.5C 183.57,874.759 216.403,844.092 272.5,838.5 Z"/></g>
<g><path style="opacity:0.997" fill="#14485c" d="M 2496.5,838.5 C 2542.43,839.696 2574.93,861.029 2594,902.5C 2596.94,910.264 2598.94,918.264 2600,926.5C 2600.67,1006.5 2600.67,1086.5 2600,1166.5C 2592.7,1208.47 2568.87,1236.3 2528.5,1250C 2478.09,1261.32 2438.92,1245.49 2411,1202.5C 2404.8,1190.89 2400.8,1178.55 2399,1165.5C 2398.33,1085.83 2398.33,1006.17 2399,926.5C 2406.3,884.531 2430.13,856.698 2470.5,843C 2479.2,840.88 2487.87,839.38 2496.5,838.5 Z"/></g>
<g><path style="opacity:0.994" fill="#14485c" d="M 4721.5,838.5 C 4762.39,839.613 4793.23,857.613 4814,892.5C 4819.9,904.522 4823.56,917.188 4825,930.5C 4825.67,1007.83 4825.67,1085.17 4825,1162.5C 4817.16,1213.34 4787.99,1243.51 4737.5,1253C 4697.55,1256.76 4665.38,1242.93 4641,1211.5C 4630.85,1196.73 4624.85,1180.4 4623,1162.5C 4622.33,1085.17 4622.33,1007.83 4623,930.5C 4629.36,884.959 4654.52,855.459 4698.5,842C 4706.26,840.447 4713.92,839.28 4721.5,838.5 Z"/></g>
<g><path style="opacity:0.997" fill="#c3122d" d="M 2250.5,1793.5 C 2323.62,1792.97 2395.62,1801.64 2466.5,1819.5C 2467.5,1877.16 2467.83,1934.83 2467.5,1992.5C 2429.98,1982.86 2391.98,1975.69 2353.5,1971C 2324.16,1967.71 2294.83,1967.71 2265.5,1971C 2243.84,1973.44 2223.84,1980.44 2205.5,1992C 2180.58,2011.09 2175.41,2034.59 2190,2062.5C 2202.12,2078.48 2217.62,2089.98 2236.5,2097C 2273.62,2109.93 2310.96,2122.26 2348.5,2134C 2398.23,2151.44 2440.4,2179.94 2475,2219.5C 2515.61,2272.22 2531.28,2331.56 2522,2397.5C 2509.12,2489.46 2460.62,2554.96 2376.5,2594C 2325.55,2616.39 2272.21,2628.73 2216.5,2631C 2133.35,2633.03 2051.02,2625.86 1969.5,2609.5C 1968.17,2547.17 1968.17,2484.83 1969.5,2422.5C 2031.99,2441.11 2095.83,2451.11 2161,2452.5C 2193.2,2453.44 2224.7,2449.27 2255.5,2440C 2271.04,2434.65 2284.54,2426.15 2296,2414.5C 2314,2390.17 2314,2365.83 2296,2341.5C 2281.47,2326.15 2264.3,2314.65 2244.5,2307C 2214.66,2296.61 2184.66,2286.61 2154.5,2277C 2107.64,2261.09 2065.97,2236.75 2029.5,2204C 1986.67,2160.3 1965.67,2107.63 1966.5,2046C 1969.43,1934.12 2022.77,1857.79 2126.5,1817C 2166.76,1802.79 2208.09,1794.96 2250.5,1793.5 Z"/></g>
<g><path style="opacity:0.996" fill="#c3122e" d="M 1016.5,1793.5 C 1082.34,1793.38 1146.68,1803.05 1209.5,1822.5C 1209.83,1895.17 1209.5,1967.84 1208.5,2040.5C 1133.59,2000.57 1054.59,1989.07 971.5,2006C 897.185,2027.19 848.018,2074.36 824,2147.5C 806.037,2212.8 814.37,2274.47 849,2332.5C 889.33,2389.94 944.83,2421.44 1015.5,2427C 1083.68,2430.86 1148.01,2417.03 1208.5,2385.5C 1209.5,2458.16 1209.83,2530.83 1209.5,2603.5C 1157.28,2619.04 1103.95,2628.2 1049.5,2631C 940.445,2636.66 841.445,2608.33 752.5,2546C 653.141,2468.13 599.974,2365.63 593,2238.5C 587.039,2133.96 614.705,2039.63 676,1955.5C 737.332,1878.04 816.499,1828.21 913.5,1806C 947.576,1798.45 981.909,1794.28 1016.5,1793.5 Z"/></g>
<g><path style="opacity:0.997" fill="#c3122d" d="M 3145.5,1793.5 C 3211.3,1793.57 3275.64,1803.23 3338.5,1822.5C 3338.83,1895.17 3338.5,1967.84 3337.5,2040.5C 3261.19,1999.78 3180.86,1988.61 3096.5,2007C 3023.17,2029 2975,2076.5 2952,2149.5C 2934.95,2213.74 2943.28,2274.41 2977,2331.5C 3017.51,2389.52 3073.34,2421.36 3144.5,2427C 3195.7,2429.97 3245.36,2422.63 3293.5,2405C 3308.83,2399 3323.83,2392.5 3338.5,2385.5C 3338.5,2458.17 3338.5,2530.83 3338.5,2603.5C 3304,2613.23 3269,2620.73 3233.5,2626C 3135.69,2640.86 3041.69,2628.19 2951.5,2588C 2839.03,2533.27 2766.53,2445.43 2734,2324.5C 2711.16,2228.58 2717.82,2134.58 2754,2042.5C 2809.69,1919.87 2902.86,1841.71 3033.5,1808C 3070.47,1799.21 3107.81,1794.38 3145.5,1793.5 Z"/></g>
<g><path style="opacity:0.997" fill="#c3112d" d="M 3973.5,1793.5 C 4085.78,1792.53 4184.45,1828.03 4269.5,1900C 4367,1991.74 4412.5,2104.9 4406,2239.5C 4396.76,2367.83 4341.6,2471 4240.5,2549C 4154.93,2609.24 4059.59,2636.57 3954.5,2631C 3837.66,2624.87 3739.16,2579.71 3659,2495.5C 3581.7,2406.6 3546.36,2302.93 3553,2184.5C 3563.26,2052.42 3621.43,1947.59 3727.5,1870C 3801.84,1820.08 3883.84,1794.58 3973.5,1793.5 Z M 3966.5,2000.5 C 4037.94,1997.98 4096.77,2023.65 4143,2077.5C 4192.77,2145.2 4202.77,2218.54 4173,2297.5C 4138.52,2372.02 4080.35,2414.19 3998.5,2424C 3909.6,2428.97 3842.1,2393.81 3796,2318.5C 3762.78,2253.45 3760.45,2187.45 3789,2120.5C 3826.04,2048.04 3885.21,2008.04 3966.5,2000.5 Z"/></g>
<g><path style="opacity:0.999" fill="#c3112d" d="M 1489.5,1808.5 C 1557.5,1808.5 1625.5,1808.5 1693.5,1808.5C 1693.5,2078.17 1693.5,2347.83 1693.5,2617.5C 1625.5,2617.5 1557.5,2617.5 1489.5,2617.5C 1489.5,2347.83 1489.5,2078.17 1489.5,1808.5 Z"/></g>
<g><path style="opacity:0.968" fill="#c3112e" d="M 4620.5,2509.5 C 4649.83,2509.5 4679.17,2509.5 4708.5,2509.5C 4708.5,2514.17 4708.5,2518.83 4708.5,2523.5C 4696.5,2523.5 4684.5,2523.5 4672.5,2523.5C 4672.5,2554.83 4672.5,2586.17 4672.5,2617.5C 4667.5,2617.5 4662.5,2617.5 4657.5,2617.5C 4657.5,2586.17 4657.5,2554.83 4657.5,2523.5C 4645.17,2523.5 4632.83,2523.5 4620.5,2523.5C 4620.5,2518.83 4620.5,2514.17 4620.5,2509.5 Z"/></g>
<g><path style="opacity:0.944" fill="#c3112e" d="M 4715.5,2509.5 C 4723.53,2509.17 4731.53,2509.5 4739.5,2510.5C 4750.28,2539.06 4760.78,2567.72 4771,2596.5C 4781.47,2567.58 4791.64,2538.58 4801.5,2509.5C 4809.5,2509.5 4817.5,2509.5 4825.5,2509.5C 4825.5,2545.5 4825.5,2581.5 4825.5,2617.5C 4820.17,2617.5 4814.83,2617.5 4809.5,2617.5C 4809.67,2589.16 4809.5,2560.83 4809,2532.5C 4798.6,2560.54 4788.1,2588.54 4777.5,2616.5C 4772.28,2617.8 4767.11,2617.8 4762,2616.5C 4752,2588.5 4742,2560.5 4732,2532.5C 4731.5,2560.83 4731.33,2589.16 4731.5,2617.5C 4726.17,2617.5 4720.83,2617.5 4715.5,2617.5C 4715.5,2581.5 4715.5,2545.5 4715.5,2509.5 Z"/></g>
</svg>
