<?xml version="1.0" encoding="UTF-8"?>
<!DOCTYPE svg PUBLIC "-//W3C//DTD SVG 1.1//EN" "http://www.w3.org/Graphics/SVG/1.1/DTD/svg11.dtd">
<svg xmlns="http://www.w3.org/2000/svg" version="1.1" width="1600px" height="674px" style="shape-rendering:geometricPrecision; text-rendering:geometricPrecision; image-rendering:optimizeQuality; fill-rule:evenodd; clip-rule:evenodd" xmlns:xlink="http://www.w3.org/1999/xlink">
<g><path style="opacity:0.988" fill="#00b287" d="M 527.5,4.5 C 708.835,4.16667 890.168,4.5 1071.5,5.5C 1071.64,56.7371 1071.97,107.904 1072.5,159C 1072.04,159.414 1071.71,159.914 1071.5,160.5C 890.168,161.667 708.834,161.833 527.5,161C 527.264,108.882 527.264,56.7155 527.5,4.5 Z M 561.5,38.5 C 720.167,38.5 878.833,38.5 1037.5,38.5C 1037.5,67.8333 1037.5,97.1667 1037.5,126.5C 878.833,126.5 720.167,126.5 561.5,126.5C 561.5,97.1667 561.5,67.8333 561.5,38.5 Z"/></g>
<g><path style="opacity:0.973" fill="#000000" d="M 4.5,262.5 C 16.1667,262.5 27.8333,262.5 39.5,262.5C 39.5,282.833 39.5,303.167 39.5,323.5C 59.1667,323.5 78.8333,323.5 98.5,323.5C 98.5,303.167 98.5,282.833 98.5,262.5C 110.167,262.5 121.833,262.5 133.5,262.5C 133.5,314.833 133.5,367.167 133.5,419.5C 121.833,419.5 110.167,419.5 98.5,419.5C 98.5,397.833 98.5,376.167 98.5,354.5C 78.8333,354.5 59.1667,354.5 39.5,354.5C 39.6666,375.836 39.5,397.169 39,418.5C 27.5809,419.488 16.0809,419.821 4.5,419.5C 4.5,367.167 4.5,314.833 4.5,262.5 Z"/></g>
<g><path style="opacity:0.969" fill="#000000" d="M 442.5,262.5 C 453.833,262.5 465.167,262.5 476.5,262.5C 476.333,303.835 476.5,345.168 477,386.5C 477.833,390 480,392.167 483.5,393C 486.951,393.473 490.285,392.973 493.5,391.5C 494.665,400.816 494.832,410.149 494,419.5C 489.519,421.052 484.853,421.719 480,421.5C 467.878,422.572 457.545,418.906 449,410.5C 446.545,406.469 444.879,402.136 444,397.5C 442.537,352.53 442.037,307.53 442.5,262.5 Z"/></g>
<g><path style="opacity:0.973" fill="#000000" d="M 821.5,262.5 C 844.836,262.333 868.169,262.5 891.5,263C 921.72,267.39 937.387,284.89 938.5,315.5C 937.783,343.149 924.117,360.315 897.5,367C 883.879,368.385 870.212,368.885 856.5,368.5C 856.5,385.5 856.5,402.5 856.5,419.5C 844.833,419.5 833.167,419.5 821.5,419.5C 821.5,367.167 821.5,314.833 821.5,262.5 Z M 856.5,291.5 C 866.541,291.244 876.541,291.744 886.5,293C 897.467,296.47 902.8,303.97 902.5,315.5C 902.8,327.03 897.467,334.53 886.5,338C 876.506,338.5 866.506,338.666 856.5,338.5C 856.5,322.833 856.5,307.167 856.5,291.5 Z"/></g>
<g><path style="opacity:0.967" fill="#000000" d="M 1169.5,262.5 C 1180.83,262.5 1192.17,262.5 1203.5,262.5C 1203.33,291.502 1203.5,320.502 1204,349.5C 1214.5,335.667 1225,321.833 1235.5,308C 1248.51,307.167 1261.51,307.334 1274.5,308.5C 1261.17,325.5 1247.83,342.5 1234.5,359.5C 1247.83,379.167 1261.17,398.833 1274.5,418.5C 1261.51,419.666 1248.51,419.833 1235.5,419C 1225,403.167 1214.5,387.333 1204,371.5C 1203.5,387.497 1203.33,403.497 1203.5,419.5C 1192.17,419.5 1180.83,419.5 1169.5,419.5C 1169.5,367.167 1169.5,314.833 1169.5,262.5 Z"/></g>
<g><path style="opacity:0.974" fill="#000000" d="M 1560.5,262.5 C 1571.83,262.5 1583.17,262.5 1594.5,262.5C 1594.5,314.833 1594.5,367.167 1594.5,419.5C 1583.83,419.667 1573.16,419.5 1562.5,419C 1561.72,416.26 1561.22,413.426 1561,410.5C 1546.8,421.815 1530.97,424.648 1513.5,419C 1497.34,411.159 1487.51,398.325 1484,380.5C 1479.87,360.617 1482.87,341.951 1493,324.5C 1507.47,305.918 1525.97,300.418 1548.5,308C 1552.87,309.713 1556.71,312.213 1560,315.5C 1560.5,297.836 1560.67,280.17 1560.5,262.5 Z M 1535.5,334.5 C 1545.7,333.08 1553.86,336.414 1560,344.5C 1560.67,357.167 1560.67,369.833 1560,382.5C 1547.63,395.382 1534.96,395.716 1522,383.5C 1514.67,370.167 1514.67,356.833 1522,343.5C 1525.53,338.834 1530.03,335.834 1535.5,334.5 Z"/></g>
<g><path style="opacity:0.974" fill="#000000" d="M 633.5,276.5 C 644.833,276.5 656.167,276.5 667.5,276.5C 667.5,286.833 667.5,297.167 667.5,307.5C 681.167,307.5 694.833,307.5 708.5,307.5C 708.5,297.167 708.5,286.833 708.5,276.5C 719.833,276.5 731.167,276.5 742.5,276.5C 742.5,286.833 742.5,297.167 742.5,307.5C 750.5,307.5 758.5,307.5 766.5,307.5C 766.5,316.5 766.5,325.5 766.5,334.5C 758.5,334.5 750.5,334.5 742.5,334.5C 742.333,351.503 742.5,368.503 743,385.5C 744.27,389.77 747.104,392.27 751.5,393C 756.305,393.781 760.972,393.281 765.5,391.5C 766.817,400.727 766.817,409.893 765.5,419C 751.724,422.604 738.057,422.27 724.5,418C 714.612,412.073 709.445,403.24 709,391.5C 708.5,372.503 708.333,353.503 708.5,334.5C 694.833,334.5 681.167,334.5 667.5,334.5C 667.333,351.837 667.5,369.17 668,386.5C 669.668,390.165 672.501,392.332 676.5,393C 681.285,393.652 685.951,393.152 690.5,391.5C 691.817,400.727 691.817,409.893 690.5,419C 680.308,421.429 669.975,422.096 659.5,421C 644.127,418.291 635.627,409.124 634,393.5C 633.5,373.836 633.333,354.169 633.5,334.5C 627.833,334.5 622.167,334.5 616.5,334.5C 616.5,325.5 616.5,316.5 616.5,307.5C 622.167,307.5 627.833,307.5 633.5,307.5C 633.5,297.167 633.5,286.833 633.5,276.5 Z"/></g>
<g><path style="opacity:0.967" fill="#000000" d="M 200.5,304.5 C 234.186,303.688 252.686,320.022 256,353.5C 256.5,360.158 256.666,366.825 256.5,373.5C 232.824,373.167 209.157,373.5 185.5,374.5C 188.779,386.144 196.445,392.644 208.5,394C 215.556,394.788 222.556,394.455 229.5,393C 236.022,390.775 242.355,388.275 248.5,385.5C 248.832,394.525 248.498,403.525 247.5,412.5C 240.484,417.006 232.817,419.84 224.5,421C 204.146,424.534 185.812,420.201 169.5,408C 154.957,392.356 149.457,373.856 153,352.5C 157.722,325.279 173.555,309.279 200.5,304.5 Z M 200.5,331.5 C 206.94,330.79 212.94,331.957 218.5,335C 222.547,338.973 224.547,343.806 224.5,349.5C 211.483,349.832 198.483,349.499 185.5,348.5C 187.412,339.931 192.412,334.265 200.5,331.5 Z"/></g>
<g><path style="opacity:0.968" fill="#000000" d="M 551.5,304.5 C 579.747,302.848 597.58,315.514 605,342.5C 606.338,352.784 606.838,363.117 606.5,373.5C 583.167,373.5 559.833,373.5 536.5,373.5C 539.23,385.724 546.897,392.557 559.5,394C 573.146,395.571 585.813,392.737 597.5,385.5C 598.665,394.482 598.832,403.482 598,412.5C 592.617,415.964 586.784,418.464 580.5,420C 559.633,424.778 540.3,421.444 522.5,410C 505.293,393.365 499.126,373.198 504,349.5C 510.049,323.946 525.882,308.946 551.5,304.5 Z M 551.5,331.5 C 565.113,329.467 573.113,335.134 575.5,348.5C 562.517,349.499 549.517,349.832 536.5,349.5C 537.914,340.426 542.914,334.426 551.5,331.5 Z"/></g>
<g><path style="opacity:0.967" fill="#000000" d="M 985.5,304.5 C 1000.5,303.532 1014.5,306.699 1027.5,314C 1036.4,320.639 1041.57,329.473 1043,340.5C 1043.5,366.831 1043.67,393.165 1043.5,419.5C 1032.5,419.5 1021.5,419.5 1010.5,419.5C 1010.66,416.482 1010.5,413.482 1010,410.5C 993.578,423.377 976.078,424.877 957.5,415C 947.05,407.603 941.717,397.436 941.5,384.5C 942.967,365.528 952.967,353.694 971.5,349C 984.267,346.859 996.934,347.359 1009.5,350.5C 1010.18,341.02 1005.85,335.52 996.5,334C 989.266,332.469 981.933,332.469 974.5,334C 966.956,336.014 959.623,338.514 952.5,341.5C 952.168,332.143 952.502,322.81 953.5,313.5C 963.847,308.917 974.514,305.917 985.5,304.5 Z M 984.5,371.5 C 990.176,371.334 995.843,371.501 1001.5,372C 1004,372.375 1006.33,373.208 1008.5,374.5C 1011.04,388.639 1005.04,395.972 990.5,396.5C 978.311,396.464 973.478,390.464 976,378.5C 977.851,374.843 980.684,372.51 984.5,371.5 Z"/></g>
<g><path style="opacity:0.967" fill="#000000" d="M 1112.5,304.5 C 1125.29,303.762 1137.29,306.429 1148.5,312.5C 1149.83,322.5 1149.83,332.5 1148.5,342.5C 1136.86,334.07 1124.19,331.904 1110.5,336C 1099.65,341.842 1093.99,351.008 1093.5,363.5C 1096.2,386.013 1108.87,395.513 1131.5,392C 1137.68,389.739 1143.68,387.239 1149.5,384.5C 1149.67,394.172 1149.5,403.839 1149,413.5C 1143.5,417.557 1137.34,420.057 1130.5,421C 1106.8,424.878 1086.96,418.045 1071,400.5C 1058.96,382.189 1056.29,362.522 1063,341.5C 1072.16,319.337 1088.66,307.003 1112.5,304.5 Z"/></g>
<g><path style="opacity:0.965" fill="#000000" d="M 1322.5,304.5 C 1338.35,303.298 1353.02,306.798 1366.5,315C 1375.47,322.764 1380.3,332.598 1381,344.5C 1381.5,369.498 1381.67,394.498 1381.5,419.5C 1370.5,419.5 1359.5,419.5 1348.5,419.5C 1348.67,416.15 1348.5,412.817 1348,409.5C 1338.12,419.125 1326.29,422.958 1312.5,421C 1287.87,416.352 1277.03,401.519 1280,376.5C 1283.11,363.385 1291.11,354.718 1304,350.5C 1318.47,346.343 1332.8,346.676 1347,351.5C 1347.93,345.055 1345.76,339.888 1340.5,336C 1329.48,332.385 1318.48,332.052 1307.5,335C 1301.73,337.088 1296.06,339.255 1290.5,341.5C 1290.17,332.143 1290.5,322.81 1291.5,313.5C 1301.46,308.764 1311.8,305.764 1322.5,304.5 Z M 1322.5,371.5 C 1330.74,370.846 1338.74,371.846 1346.5,374.5C 1348.98,385.692 1344.65,392.859 1333.5,396C 1327.96,396.913 1322.63,396.246 1317.5,394C 1309.7,384.243 1311.37,376.743 1322.5,371.5 Z"/></g>
<g><path style="opacity:0.962" fill="#000000" d="M 1455.5,306.5 C 1461.88,306.295 1468.21,306.628 1474.5,307.5C 1474.5,318.5 1474.5,329.5 1474.5,340.5C 1466.85,338.247 1459.19,337.747 1451.5,339C 1444.16,341.67 1439.66,346.837 1438,354.5C 1437.5,376.164 1437.33,397.831 1437.5,419.5C 1426.17,419.5 1414.83,419.5 1403.5,419.5C 1403.5,382.167 1403.5,344.833 1403.5,307.5C 1414.5,307.5 1425.5,307.5 1436.5,307.5C 1436.33,312.844 1436.5,318.177 1437,323.5C 1440.83,315.162 1447,309.495 1455.5,306.5 Z"/></g>
<g><path style="opacity:0.97" fill="#000000" d="M 262.5,307.5 C 273.833,307.5 285.167,307.5 296.5,307.5C 302.173,328.525 308.007,349.525 314,370.5C 319.976,349.933 325.642,329.266 331,308.5C 340.089,307.35 349.255,307.183 358.5,308C 364.526,329.082 370.359,350.249 376,371.5C 382.155,350.545 388.155,329.545 394,308.5C 404.752,307.513 415.585,307.18 426.5,307.5C 415.576,344.608 404.242,381.608 392.5,418.5C 382.188,419.499 371.855,419.832 361.5,419.5C 356.16,398.476 350.66,377.476 345,356.5C 338.867,377.027 333.033,397.693 327.5,418.5C 317.188,419.499 306.855,419.832 296.5,419.5C 285.369,382.107 274.036,344.774 262.5,307.5 Z"/></g>
<g><path style="opacity:0.971" fill="#000000" d="M 320.5,469.5 C 352.833,469.5 385.167,469.5 417.5,469.5C 417.5,476.167 417.5,482.833 417.5,489.5C 392.5,489.5 367.5,489.5 342.5,489.5C 342.5,505.167 342.5,520.833 342.5,536.5C 365.167,536.5 387.833,536.5 410.5,536.5C 410.5,542.833 410.5,549.167 410.5,555.5C 387.833,555.5 365.167,555.5 342.5,555.5C 342.5,572.5 342.5,589.5 342.5,606.5C 367.5,606.5 392.5,606.5 417.5,606.5C 417.5,613.167 417.5,619.833 417.5,626.5C 385.167,626.5 352.833,626.5 320.5,626.5C 320.5,574.167 320.5,521.833 320.5,469.5 Z"/></g>
<g><path style="opacity:0.932" fill="#000000" d="M 1041.5,471.5 C 1052.17,470.016 1058.51,474.516 1060.5,485C 1057.8,495.714 1051.13,499.714 1040.5,497C 1033.09,492.68 1030.92,486.513 1034,478.5C 1036.01,475.588 1038.51,473.255 1041.5,471.5 Z"/></g>
<g><path style="opacity:0.949" fill="#000000" d="M 569.5,486.5 C 576.833,486.5 584.167,486.5 591.5,486.5C 591.5,496.167 591.5,505.833 591.5,515.5C 600.833,515.5 610.167,515.5 619.5,515.5C 619.5,521.833 619.5,528.167 619.5,534.5C 610.167,534.5 600.833,534.5 591.5,534.5C 591.043,556.886 591.543,579.22 593,601.5C 596.705,607.651 602.205,610.318 609.5,609.5C 612.855,609.276 616.188,608.943 619.5,608.5C 619.666,614.509 619.499,620.509 619,626.5C 617.933,627.191 616.766,627.691 615.5,628C 603.576,629.899 592.243,628.232 581.5,623C 573.412,616.086 569.579,607.253 570,596.5C 569.5,575.836 569.333,555.169 569.5,534.5C 563.491,534.666 557.491,534.499 551.5,534C 550.167,528 550.167,522 551.5,516C 557.491,515.501 563.491,515.334 569.5,515.5C 569.5,505.833 569.5,496.167 569.5,486.5 Z"/></g>
<g><path style="opacity:0.959" fill="#000000" d="M 490.5,513.5 C 514.93,511.11 529.763,521.777 535,545.5C 535.5,572.498 535.667,599.498 535.5,626.5C 528.5,626.5 521.5,626.5 514.5,626.5C 514.954,600.457 514.454,574.457 513,548.5C 509.561,538.606 502.561,533.606 492,533.5C 479.333,534 470.333,540 465,551.5C 464.5,576.498 464.333,601.498 464.5,626.5C 457.167,626.5 449.833,626.5 442.5,626.5C 442.5,589.5 442.5,552.5 442.5,515.5C 449.833,515.5 457.167,515.5 464.5,515.5C 464.334,520.179 464.501,524.845 465,529.5C 471.583,520.966 480.083,515.633 490.5,513.5 Z"/></g>
<g><path style="opacity:0.962" fill="#000000" d="M 675.5,513.5 C 703.862,511.384 721.362,524.05 728,551.5C 729.252,560.12 729.752,568.787 729.5,577.5C 704.5,577.5 679.5,577.5 654.5,577.5C 655.205,594.04 663.538,604.54 679.5,609C 686.5,609.667 693.5,609.667 700.5,609C 708.036,607.223 715.036,604.39 721.5,600.5C 721.666,606.842 721.5,613.175 721,619.5C 714.639,624.289 707.472,627.122 699.5,628C 652.033,631.199 629.866,609.033 633,561.5C 636.541,535.807 650.708,519.807 675.5,513.5 Z M 676.5,532.5 C 696.784,530.781 707.451,540.115 708.5,560.5C 690.497,560.667 672.497,560.5 654.5,560C 656.757,546.598 664.09,537.431 676.5,532.5 Z"/></g>
<g><path style="opacity:0.952" fill="#000000" d="M 876.5,513.5 C 909.67,513.184 928.503,529.517 933,562.5C 935.631,584.611 929.131,603.444 913.5,619C 901.838,627.498 888.838,630.498 874.5,628C 866.246,626.124 859.079,622.291 853,616.5C 852.5,633.83 852.333,651.163 852.5,668.5C 845.167,668.5 837.833,668.5 830.5,668.5C 830.5,617.5 830.5,566.5 830.5,515.5C 837.833,515.5 845.167,515.5 852.5,515.5C 852.335,519.182 852.501,522.848 853,526.5C 859.682,519.913 867.516,515.579 876.5,513.5 Z M 872.5,533.5 C 895.121,532.281 907.954,542.948 911,565.5C 912.474,577.531 909.808,588.531 903,598.5C 889.288,611.779 874.788,612.779 859.5,601.5C 857.144,598.978 854.977,596.312 853,593.5C 852.333,578.833 852.333,564.167 853,549.5C 857.518,541.67 864.018,536.336 872.5,533.5 Z"/></g>
<g><path style="opacity:0.95" fill="#000000" d="M 1117.5,513.5 C 1132.19,512.165 1145.86,515.165 1158.5,522.5C 1159.5,529.468 1159.83,536.468 1159.5,543.5C 1153.32,539.581 1146.66,536.414 1139.5,534C 1130.03,531.71 1120.69,532.043 1111.5,535C 1104.44,540.398 1103.77,546.398 1109.5,553C 1120.6,557.922 1131.93,562.256 1143.5,566C 1164.75,576.464 1169.91,592.298 1159,613.5C 1152.51,621.828 1144.01,626.661 1133.5,628C 1116.55,630.689 1100.55,628.022 1085.5,620C 1084.19,612.891 1084.19,605.724 1085.5,598.5C 1100.6,609.739 1117.26,612.906 1135.5,608C 1144.68,602.449 1145.68,595.782 1138.5,588C 1125.17,582.667 1111.83,577.333 1098.5,572C 1085.02,562.619 1081.19,550.119 1087,534.5C 1093.51,522.163 1103.68,515.163 1117.5,513.5 Z"/></g>
<g><path style="opacity:0.962" fill="#000000" d="M 1225.5,513.5 C 1253.07,511.522 1270.24,523.856 1277,550.5C 1278.35,559.441 1278.85,568.441 1278.5,577.5C 1253.5,577.5 1228.5,577.5 1203.5,577.5C 1204.52,594.406 1213.19,604.906 1229.5,609C 1236.5,609.667 1243.5,609.667 1250.5,609C 1257.78,606.689 1264.78,603.855 1271.5,600.5C 1271.67,606.509 1271.5,612.509 1271,618.5C 1264.77,623.698 1257.6,626.865 1249.5,628C 1203.15,632.089 1180.65,610.923 1182,564.5C 1184.42,536.888 1198.92,519.888 1225.5,513.5 Z M 1226.5,532.5 C 1246.3,531.303 1256.64,540.636 1257.5,560.5C 1239.83,560.5 1222.17,560.5 1204.5,560.5C 1206.4,546.633 1213.73,537.3 1226.5,532.5 Z"/></g>
<g><path style="opacity:0.941" fill="#000000" d="M 793.5,514.5 C 799.561,514.21 805.561,514.543 811.5,515.5C 812.833,522.833 812.833,530.167 811.5,537.5C 794.208,531.569 782.041,536.903 775,553.5C 774.5,577.831 774.333,602.164 774.5,626.5C 767.167,626.5 759.833,626.5 752.5,626.5C 752.333,589.832 752.5,553.165 753,516.5C 760.079,515.52 767.245,515.187 774.5,515.5C 774.334,520.511 774.501,525.511 775,530.5C 779.217,522.774 785.384,517.441 793.5,514.5 Z"/></g>
<g><path style="opacity:0.974" fill="#000000" d="M 997.5,514.5 C 1003.56,514.21 1009.56,514.543 1015.5,515.5C 1016.83,522.833 1016.83,530.167 1015.5,537.5C 998.208,531.569 986.041,536.903 979,553.5C 978.5,577.831 978.333,602.164 978.5,626.5C 971.5,626.5 964.5,626.5 957.5,626.5C 957.5,589.5 957.5,552.5 957.5,515.5C 964.5,515.5 971.5,515.5 978.5,515.5C 978.334,520.511 978.501,525.511 979,530.5C 983.217,522.774 989.384,517.441 997.5,514.5 Z"/></g>
<g><path style="opacity:0.934" fill="#000000" d="M 1035.5,515.5 C 1042.83,515.5 1050.17,515.5 1057.5,515.5C 1057.5,552.5 1057.5,589.5 1057.5,626.5C 1050.17,626.5 1042.83,626.5 1035.5,626.5C 1035.5,589.5 1035.5,552.5 1035.5,515.5 Z"/></g>
</svg>
